<svg xmlns="http://www.w3.org/2000/svg" width="70" height="70" viewBox="0 0 500 540" version="1.1" style="cursor: pointer;">
<g><path style="opacity:0.767" fill="#070000" d="M 317.5,72.5 C 317.387,75.0488 318.054,77.3821 319.5,79.5C 319,79.8333 318.5,80.1667 318,80.5C 308.08,74.8825 298.58,68.8825 289.5,62.5C 283.54,58.5012 277.873,54.0012 272.5,49C 268.16,44.9931 264.16,40.6598 260.5,36C 259.255,35.2086 257.922,34.7086 256.5,34.5C 251.154,24.1385 247.487,13.1385 245.5,1.5C 246.365,0.417278 247.365,0.250612 248.5,1C 254.617,13.3994 262.117,24.8994 271,35.5C 285.171,49.648 300.671,61.9813 317.5,72.5 Z"/></g>
<g><path style="opacity:0.75" fill="#090100" d="M 288.5,82.5 C 289.957,84.7848 291.957,86.6181 294.5,88C 293.833,88.1667 293.167,88.3333 292.5,88.5C 273.117,82.2705 254.783,73.9372 237.5,63.5C 223.904,55.5427 210.904,46.876 198.5,37.5C 191.114,28.745 185.781,18.745 182.5,7.5C 183.822,7.33003 184.989,7.66337 186,8.5C 190.436,15.6005 195.603,22.1005 201.5,28C 219.465,44.0881 239.132,57.7548 260.5,69C 270.147,73.3266 279.48,77.8266 288.5,82.5 Z"/></g>
<g><path style="opacity:0.836" fill="#050000" d="M 354.5,76.5 C 353.583,78.6618 353.583,80.9952 354.5,83.5C 352.579,82.6373 350.579,81.9707 348.5,81.5C 344.854,79.1829 341.52,76.5162 338.5,73.5C 328.018,63.8766 321.684,51.8766 319.5,37.5C 319.274,29.2338 321.94,22.0672 327.5,16C 328.877,14.759 330.21,14.5923 331.5,15.5C 327.799,40.5197 335.466,60.853 354.5,76.5 Z"/></g>
<g><path style="opacity:0.833" fill="#c50101" d="M 256.5,34.5 C 257.922,34.7086 259.255,35.2086 260.5,36C 264.16,40.6598 268.16,44.9931 272.5,49C 277.873,54.0012 283.54,58.5012 289.5,62.5C 289.709,63.9217 290.209,65.255 291,66.5C 298.445,74.3112 306.611,81.3112 315.5,87.5C 314.833,87.8333 314.167,88.1667 313.5,88.5C 307.972,87.2113 302.638,85.5447 297.5,83.5C 296.833,83.5 296.167,83.5 295.5,83.5C 286.337,74.063 277.337,64.3963 268.5,54.5C 263.65,48.3228 259.65,41.6561 256.5,34.5 Z"/></g>
<g><path style="opacity:0.801" fill="#c40101" d="M 198.5,37.5 C 210.904,46.876 223.904,55.5427 237.5,63.5C 238.164,65.8669 239.497,67.8669 241.5,69.5C 247.616,73.6709 253.616,77.8376 259.5,82C 254.261,81.7148 249.261,81.2148 244.5,80.5C 243.791,79.596 242.791,79.2627 241.5,79.5C 235.457,74.2896 229.124,69.2896 222.5,64.5C 216.5,57.8333 210.167,51.5 203.5,45.5C 201.78,42.7984 200.113,40.1318 198.5,37.5 Z"/></g>
<g><path style="opacity:0.826" fill="#c10001" d="M 319.5,37.5 C 321.684,51.8766 328.018,63.8766 338.5,73.5C 338.961,75.5504 339.628,77.5504 340.5,79.5C 340,79.8333 339.5,80.1667 339,80.5C 334.989,77.8233 330.823,75.49 326.5,73.5C 324.059,68.8022 322.059,63.8022 320.5,58.5C 320.007,52.7139 319.007,47.0473 317.5,41.5C 317.34,39.6455 318.007,38.3121 319.5,37.5 Z"/></g>
<g><path style="opacity:0.842" fill="#060000" d="M 420.5,124.5 C 420.813,127.247 420.48,129.914 419.5,132.5C 413.391,128.569 407.391,124.403 401.5,120C 400.367,115.671 398.867,111.504 397,107.5C 383.33,95.3577 371.497,82.0243 361.5,67.5C 361.161,62.0698 361.661,56.7364 363,51.5C 364.191,48.4659 366.358,46.7993 369.5,46.5C 369.356,50.3745 369.69,54.2079 370.5,58C 373.566,65.063 377.066,71.8964 381,78.5C 389.384,87.9282 398.217,96.9282 407.5,105.5C 410.427,109.356 412.261,113.69 413,118.5C 415.727,120.416 418.227,122.416 420.5,124.5 Z"/></g>
<g><path style="opacity:0.994" fill="#cb2121" d="M 289.5,62.5 C 298.58,68.8825 308.08,74.8825 318,80.5C 318.5,80.1667 319,79.8333 319.5,79.5C 318.054,77.3821 317.387,75.0488 317.5,72.5C 321.06,73.8972 324.227,75.8972 327,78.5C 327.384,76.8034 327.218,75.1368 326.5,73.5C 330.823,75.49 334.989,77.8233 339,80.5C 339.5,80.1667 340,79.8333 340.5,79.5C 339.628,77.5504 338.961,75.5504 338.5,73.5C 341.52,76.5162 344.854,79.1829 348.5,81.5C 349.736,83.0428 351.402,84.0428 353.5,84.5C 354.107,84.3764 354.44,84.0431 354.5,83.5C 353.583,80.9952 353.583,78.6618 354.5,76.5C 356.862,78.4012 359.529,79.7345 362.5,80.5C 361.8,76.2022 361.467,71.8689 361.5,67.5C 371.497,82.0243 383.33,95.3577 397,107.5C 398.867,111.504 400.367,115.671 401.5,120C 407.391,124.403 413.391,128.569 419.5,132.5C 420.48,129.914 420.813,127.247 420.5,124.5C 423.397,125.717 426.064,127.384 428.5,129.5C 429.107,129.376 429.44,129.043 429.5,128.5C 435.869,132.685 442.536,136.352 449.5,139.5C 457.023,142.4 465.023,143.733 473.5,143.5C 473.5,142.5 473.5,141.5 473.5,140.5C 474.833,140.5 476.167,140.5 477.5,140.5C 478.061,149.631 476.728,158.464 473.5,167C 471.083,172.288 468.083,177.122 464.5,181.5C 464.5,180.5 464.5,179.5 464.5,178.5C 462.678,178.169 461.011,177.502 459.5,176.5C 457.796,166.475 452.462,163.808 443.5,168.5C 440.609,167.597 437.609,167.264 434.5,167.5C 434.5,166.833 434.167,166.5 433.5,166.5C 433.414,164.323 432.747,162.323 431.5,160.5C 425.914,153.628 418.58,150.628 409.5,151.5C 407.048,151.539 405.048,152.206 403.5,153.5C 402.2,152.892 400.867,152.225 399.5,151.5C 397.823,152.187 396.156,152.854 394.5,153.5C 379.157,148.813 367.99,153.813 361,168.5C 357.329,189.662 366.162,198.996 387.5,196.5C 391.898,196.706 396.232,196.373 400.5,195.5C 400.5,195.833 400.5,196.167 400.5,196.5C 399.027,200.101 399.361,203.434 401.5,206.5C 402.272,207.694 403.272,208.694 404.5,209.5C 405.694,210.777 407.36,211.444 409.5,211.5C 411.369,211.493 413.036,211.16 414.5,210.5C 414.833,209.833 415.167,209.167 415.5,208.5C 417.05,209.441 418.716,210.107 420.5,210.5C 418.206,215.62 415.539,220.62 412.5,225.5C 411.148,226.524 409.815,227.524 408.5,228.5C 408.249,226.83 407.582,225.33 406.5,224C 403.612,221.474 400.445,219.307 397,217.5C 392.05,216.554 387.217,215.221 382.5,213.5C 376.672,212.347 371.005,212.347 365.5,213.5C 357.5,213.5 349.5,213.5 341.5,213.5C 336.469,212.217 331.469,212.217 326.5,213.5C 322.119,213.372 317.785,213.705 313.5,214.5C 314.369,205.035 318.369,197.202 325.5,191C 324.833,190.333 324.167,189.667 323.5,189C 319.194,188.028 314.86,187.194 310.5,186.5C 308.927,186.752 307.594,187.418 306.5,188.5C 302.5,188.5 298.5,188.5 294.5,188.5C 294.5,187.5 294.5,186.5 294.5,185.5C 291.5,185.5 288.5,185.5 285.5,185.5C 289.03,176.3 295.363,169.633 304.5,165.5C 299.578,161.426 294.745,157.092 290,152.5C 284.197,144.585 284.197,136.585 290,128.5C 293.242,124.958 297.076,122.124 301.5,120C 298.485,119.799 295.485,120.132 292.5,121C 289.721,122.722 286.721,123.889 283.5,124.5C 283.157,122.775 282.157,122.275 280.5,123C 276.677,124.535 273.344,126.701 270.5,129.5C 270.729,127.567 271.562,125.9 273,124.5C 275.78,123.862 277.947,122.362 279.5,120C 269.153,120.41 261.153,124.91 255.5,133.5C 254.167,138.167 254.167,142.833 255.5,147.5C 257.408,152.178 259.741,156.511 262.5,160.5C 262.167,160.5 261.833,160.5 261.5,160.5C 249.786,157.321 240.453,160.654 233.5,170.5C 231.955,171.23 231.122,172.563 231,174.5C 230.183,180.016 230.349,185.35 231.5,190.5C 232.806,195.253 234.64,199.919 237,204.5C 240.429,208.772 243.262,213.438 245.5,218.5C 259.822,235.2 276.489,249.366 295.5,261C 320.042,272.469 343.042,286.135 364.5,302C 377.642,313.499 387.975,326.999 395.5,342.5C 398.053,348.598 399.72,354.932 400.5,361.5C 400.775,370.221 400.442,378.887 399.5,387.5C 399.436,391.22 398.936,394.886 398,398.5C 382.073,440.595 352.907,468.928 310.5,483.5C 307.505,483.294 304.838,483.96 302.5,485.5C 300.302,485.875 298.302,486.542 296.5,487.5C 291.021,487.459 286.021,488.792 281.5,491.5C 276.167,492.5 270.833,493.5 265.5,494.5C 256.506,494.966 247.506,495.3 238.5,495.5C 238.5,496.5 238.5,497.5 238.5,498.5C 235.5,498.5 232.5,498.5 229.5,498.5C 222.204,496.761 214.537,495.594 206.5,495C 195.088,491.975 183.588,488.809 172,485.5C 130.56,468.227 101.393,438.894 84.5,397.5C 91.5758,403.538 99.0758,409.204 107,414.5C 129.892,427.026 154.392,435.193 180.5,439C 185.552,439.726 190.552,439.559 195.5,438.5C 205.833,438.5 216.167,438.5 226.5,438.5C 231.65,439.651 236.984,439.817 242.5,439C 248.368,437.286 254.034,435.12 259.5,432.5C 266.923,427.341 269.257,420.341 266.5,411.5C 261.345,400.757 253.345,392.924 242.5,388C 230.933,383.461 218.933,381.628 206.5,382.5C 200.5,382.5 194.5,382.5 188.5,382.5C 184.298,382.817 180.298,382.483 176.5,381.5C 180.182,381.665 183.848,381.499 187.5,381C 189.708,380.064 191.042,378.398 191.5,376C 195.783,373.385 199.783,370.385 203.5,367C 208.213,365.326 212.88,363.66 217.5,362C 220.432,361.047 223.432,360.547 226.5,360.5C 226.5,359.5 226.5,358.5 226.5,357.5C 227.833,357.5 229.167,357.5 230.5,357.5C 230.5,358.5 230.5,359.5 230.5,360.5C 232.833,360.5 235.167,360.5 237.5,360.5C 244.727,361.393 251.727,363.393 258.5,366.5C 259.292,365.3 259.292,363.967 258.5,362.5C 261.206,362.575 263.873,362.908 266.5,363.5C 267.695,363.322 268.862,362.989 270,362.5C 273.791,364.165 277.624,365.332 281.5,366C 265.702,345.725 245.035,336.559 219.5,338.5C 213.5,338.5 207.5,338.5 201.5,338.5C 200.833,338.5 200.167,338.5 199.5,338.5C 197.19,337.836 194.69,337.503 192,337.5C 187.573,337.394 183.406,338.06 179.5,339.5C 173.409,341.767 167.409,344.434 161.5,347.5C 162.402,341.108 164.902,335.441 169,330.5C 177.253,318.483 188.087,309.649 201.5,304C 206.545,302.425 211.545,301.259 216.5,300.5C 222.212,300.313 227.879,300.646 233.5,301.5C 241.342,302.057 249.009,303.557 256.5,306C 262.007,308.512 267.507,311.012 273,313.5C 281.114,317.97 288.281,323.47 294.5,330C 296.359,330.684 298.026,331.684 299.5,333C 302.693,337.68 306.026,342.18 309.5,346.5C 309.833,345.833 310.167,345.167 310.5,344.5C 306.715,337.431 303.049,330.431 299.5,323.5C 304.028,325.681 308.028,328.681 311.5,332.5C 312.521,331.998 312.688,331.332 312,330.5C 310.147,328.097 308.314,325.764 306.5,323.5C 306.56,322.957 306.893,322.624 307.5,322.5C 309.731,324.886 312.397,326.719 315.5,328C 321.428,334.086 326.761,340.586 331.5,347.5C 331.833,347.167 332.167,346.833 332.5,346.5C 331.209,343.052 329.709,339.719 328,336.5C 323.813,329.446 319.147,322.779 314,316.5C 307.858,312.06 302.024,307.227 296.5,302C 289.543,298.473 282.876,294.473 276.5,290C 267.772,287.786 259.272,284.953 251,281.5C 239.934,279.115 228.768,277.448 217.5,276.5C 214.41,276.522 211.743,277.188 209.5,278.5C 205.167,278.5 200.833,278.5 196.5,278.5C 194.721,276.656 192.388,275.99 189.5,276.5C 182.82,276.527 176.154,276.86 169.5,277.5C 166.731,277.529 164.397,278.195 162.5,279.5C 159.167,279.5 155.833,279.5 152.5,279.5C 146.253,277.834 139.92,275.667 133.5,273C 129.018,269.353 124.685,265.519 120.5,261.5C 117.44,256.913 115.44,251.913 114.5,246.5C 116.808,246.914 119.142,247.247 121.5,247.5C 123.333,247.415 124.666,246.748 125.5,245.5C 129.833,245.5 134.167,245.5 138.5,245.5C 139.152,246.725 140.319,247.392 142,247.5C 158.865,247.087 170.198,239.087 176,223.5C 177.374,199.632 166.541,184.465 143.5,178C 135.869,176.931 128.202,176.431 120.5,176.5C 113.833,176.5 107.167,176.5 100.5,176.5C 99.5,176.5 98.5,176.5 97.5,176.5C 95.3587,175.837 93.0254,175.503 90.5,175.5C 87.7305,175.529 85.3972,176.195 83.5,177.5C 78.0651,178.9 72.5651,180.233 67,181.5C 62.2396,183.796 57.4063,185.963 52.5,188C 49.5645,190.767 46.2311,192.934 42.5,194.5C 48.9399,178.131 58.9399,164.297 72.5,153C 84.3078,144.762 96.9744,138.095 110.5,133C 117.554,132.006 124.221,130.506 130.5,128.5C 134.833,128.5 139.167,128.5 143.5,128.5C 143.611,129.117 143.944,129.617 144.5,130C 146.473,130.495 148.473,130.662 150.5,130.5C 150.97,131.693 151.97,132.36 153.5,132.5C 156.878,133.042 160.211,133.709 163.5,134.5C 181.924,140.459 196.757,151.126 208,166.5C 207.709,162.226 207.543,157.893 207.5,153.5C 210.478,155.346 213.145,157.68 215.5,160.5C 216.466,158.604 216.799,156.604 216.5,154.5C 221.51,157.51 225.51,161.51 228.5,166.5C 229.335,160.483 229.001,154.483 227.5,148.5C 220.835,133.419 210.335,122.086 196,114.5C 188.519,113.097 181.019,111.764 173.5,110.5C 168.921,110.459 164.588,111.126 160.5,112.5C 158.833,112.5 157.167,112.5 155.5,112.5C 153.393,111.532 151.059,111.198 148.5,111.5C 144.03,110.514 139.363,110.181 134.5,110.5C 142.124,103.421 150.791,97.588 160.5,93C 168.349,89.8669 176.349,87.0336 184.5,84.5C 193.429,82.4726 202.096,80.4726 210.5,78.5C 210.833,78.5 211.167,78.5 211.5,78.5C 216.82,80.2112 222.486,81.2112 228.5,81.5C 231.397,81.3187 234.23,81.6521 237,82.5C 237.5,82.3333 238,82.1667 238.5,82C 237.244,81.5831 236.577,80.7498 236.5,79.5C 238.167,79.5 239.833,79.5 241.5,79.5C 242.209,80.404 243.209,80.7373 244.5,80.5C 249.261,81.2148 254.261,81.7148 259.5,82C 253.616,77.8376 247.616,73.6709 241.5,69.5C 239.497,67.8669 238.164,65.8669 237.5,63.5C 254.783,73.9372 273.117,82.2705 292.5,88.5C 293.167,88.3333 293.833,88.1667 294.5,88C 291.957,86.6181 289.957,84.7848 288.5,82.5C 290.806,82.9926 293.139,83.3259 295.5,83.5C 295.843,85.2252 296.843,85.7252 298.5,85C 297.944,84.6174 297.611,84.1174 297.5,83.5C 302.638,85.5447 307.972,87.2113 313.5,88.5C 314.167,88.1667 314.833,87.8333 315.5,87.5C 306.611,81.3112 298.445,74.3112 291,66.5C 290.209,65.255 289.709,63.9217 289.5,62.5 Z M 295.5,83.5 C 296.167,83.5 296.833,83.5 297.5,83.5C 297.611,84.1174 297.944,84.6174 298.5,85C 296.843,85.7252 295.843,85.2252 295.5,83.5 Z"/></g>
<g><path style="opacity:0.749" fill="#c60101" d="M 210.5,78.5 C 202.096,80.4726 193.429,82.4726 184.5,84.5C 176.349,87.0336 168.349,89.8669 160.5,93C 150.791,97.588 142.124,103.421 134.5,110.5C 134.5,111.167 134.5,111.833 134.5,112.5C 128.967,112.839 123.634,112.839 118.5,112.5C 144.565,89.6175 175.231,78.2842 210.5,78.5 Z"/></g>
<g><path style="opacity:0.404" fill="#0a0101" d="M 216.5,78.5 C 223.202,78.3357 229.869,78.669 236.5,79.5C 236.577,80.7498 237.244,81.5831 238.5,82C 238,82.1667 237.5,82.3333 237,82.5C 234.23,81.6521 231.397,81.3187 228.5,81.5C 224.768,79.8693 220.768,78.8693 216.5,78.5 Z"/></g>
<g><path style="opacity:0.714" fill="#550d0e" d="M 211.5,78.5 C 213.167,78.5 214.833,78.5 216.5,78.5C 220.768,78.8693 224.768,79.8693 228.5,81.5C 222.486,81.2112 216.82,80.2112 211.5,78.5 Z"/></g>
<g><path style="opacity:1" fill="#4d0f10" d="M 348.5,81.5 C 350.579,81.9707 352.579,82.6373 354.5,83.5C 354.44,84.0431 354.107,84.3764 353.5,84.5C 351.402,84.0428 349.736,83.0428 348.5,81.5 Z"/></g>
<g><path style="opacity:1" fill="#5a0e0e" d="M 134.5,110.5 C 139.363,110.181 144.03,110.514 148.5,111.5C 143.737,111.226 139.07,111.559 134.5,112.5C 134.5,111.833 134.5,111.167 134.5,110.5 Z"/></g>
<g><path style="opacity:0.867" fill="#c80101" d="M 216.5,154.5 C 208.148,126.821 189.481,112.821 160.5,112.5C 164.588,111.126 168.921,110.459 173.5,110.5C 181.019,111.764 188.519,113.097 196,114.5C 210.335,122.086 220.835,133.419 227.5,148.5C 229.001,154.483 229.335,160.483 228.5,166.5C 225.51,161.51 221.51,157.51 216.5,154.5 Z"/></g>
<g><path style="opacity:0.441" fill="#030000" d="M 148.5,111.5 C 151.059,111.198 153.393,111.532 155.5,112.5C 142.251,112.433 129.251,114.099 116.5,117.5C 116.402,115.447 117.069,113.78 118.5,112.5C 123.634,112.839 128.967,112.839 134.5,112.5C 139.07,111.559 143.737,111.226 148.5,111.5 Z"/></g>
<g><path style="opacity:0.708" fill="#080100" d="M 472.5,140.5 C 471.848,141.725 470.681,142.392 469,142.5C 462.456,141.637 455.956,140.637 449.5,139.5C 442.536,136.352 435.869,132.685 429.5,128.5C 429.173,123.786 429.507,119.12 430.5,114.5C 440.612,129.233 454.612,137.9 472.5,140.5 Z"/></g>
<g><path style="opacity:0.908" fill="#c80303" d="M 285.5,185.5 C 284.167,185.5 283.5,186.167 283.5,187.5C 279.252,187.698 275.252,188.698 271.5,190.5C 272.614,185.049 274.78,180.049 278,175.5C 281.996,171.327 286.496,167.827 291.5,165C 287.864,162.607 284.364,160.107 281,157.5C 278.146,153.79 275.813,149.79 274,145.5C 272.342,136.159 275.509,129.159 283.5,124.5C 286.721,123.889 289.721,122.722 292.5,121C 295.485,120.132 298.485,119.799 301.5,120C 297.076,122.124 293.242,124.958 290,128.5C 284.197,136.585 284.197,144.585 290,152.5C 294.745,157.092 299.578,161.426 304.5,165.5C 295.363,169.633 289.03,176.3 285.5,185.5 Z"/></g>
<g><path style="opacity:1" fill="#c80a09" d="M 371.5,125.5 C 369.223,122.898 366.556,120.898 363.5,119.5C 374.573,115.874 384.74,117.874 394,125.5C 394.987,128.697 394.487,131.53 392.5,134C 387.368,134.82 382.368,134.32 377.5,132.5C 374.889,130.552 372.889,128.218 371.5,125.5 Z"/></g>
<g><path style="opacity:0.898" fill="#110302" d="M 270.5,129.5 C 268.5,129.5 267.5,130.5 267.5,132.5C 267.5,132.833 267.5,133.167 267.5,133.5C 266.25,133.577 265.417,134.244 265,135.5C 264.262,139.71 264.428,143.876 265.5,148C 265.836,149.03 266.503,149.53 267.5,149.5C 269.976,153.997 273.309,157.997 277.5,161.5C 276.833,161.833 276.167,162.167 275.5,162.5C 271.277,161.087 266.943,160.421 262.5,160.5C 259.741,156.511 257.408,152.178 255.5,147.5C 254.167,142.833 254.167,138.167 255.5,133.5C 261.153,124.91 269.153,120.41 279.5,120C 277.947,122.362 275.78,123.862 273,124.5C 271.562,125.9 270.729,127.567 270.5,129.5 Z"/></g>
<g><path style="opacity:0.116" fill="#000000" d="M 143.5,128.5 C 139.167,128.5 134.833,128.5 130.5,128.5C 132.223,127.2 134.39,126.533 137,126.5C 139.61,126.533 141.777,127.2 143.5,128.5 Z"/></g>
<g><path style="opacity:0.978" fill="#150301" d="M 363.5,119.5 C 366.556,120.898 369.223,122.898 371.5,125.5C 372.824,128.136 372.824,130.802 371.5,133.5C 367.508,134.701 363.508,134.701 359.5,133.5C 354.235,130.712 349.235,127.545 344.5,124C 343.331,121.993 342.665,119.827 342.5,117.5C 349.637,117.164 356.637,117.831 363.5,119.5 Z"/></g>
<g><path style="opacity:1" fill="#781212" d="M 349.5,123.5 C 350.901,123.971 352.234,124.638 353.5,125.5C 351.167,126.941 349.834,126.275 349.5,123.5 Z"/></g>
<g><path style="opacity:1" fill="#5b0b0d" d="M 349.5,120.5 C 352.232,119.806 354.899,120.472 357.5,122.5C 357,122.833 356.5,123.167 356,123.5C 353.632,122.8 351.466,121.8 349.5,120.5 Z"/></g>
<g><path style="opacity:0.826" fill="#c80000" d="M 130.5,128.5 C 124.221,130.506 117.554,132.006 110.5,133C 96.9744,138.095 84.3078,144.762 72.5,153C 58.9399,164.297 48.9399,178.131 42.5,194.5C 37.1359,199.865 31.4692,204.865 25.5,209.5C 38.0134,164.198 67.68,137.365 114.5,129C 119.823,128.501 125.156,128.334 130.5,128.5 Z"/></g>
<g><path style="opacity:0.776" fill="#0e0201" d="M 143.5,128.5 C 163.37,128.339 181.537,133.672 198,144.5C 200.316,146.509 202.816,148.342 205.5,150C 206.823,150.816 207.489,151.983 207.5,153.5C 207.543,157.893 207.709,162.226 208,166.5C 196.757,151.126 181.924,140.459 163.5,134.5C 163.389,133.883 163.056,133.383 162.5,133C 158.435,132.269 154.435,131.435 150.5,130.5C 148.473,130.662 146.473,130.495 144.5,130C 143.944,129.617 143.611,129.117 143.5,128.5 Z"/></g>
<g><path style="opacity:0.127" fill="#c51f1f" d="M 270.5,129.5 C 270.144,131.19 269.144,132.19 267.5,132.5C 267.5,130.5 268.5,129.5 270.5,129.5 Z"/></g>
<g><path style="opacity:1" fill="#7b1414" d="M 150.5,130.5 C 154.435,131.435 158.435,132.269 162.5,133C 163.056,133.383 163.389,133.883 163.5,134.5C 160.211,133.709 156.878,133.042 153.5,132.5C 151.97,132.36 150.97,131.693 150.5,130.5 Z"/></g>
<g><path style="opacity:0.589" fill="#ad1c1c" d="M 267.5,133.5 C 266.296,138.811 266.296,144.144 267.5,149.5C 266.503,149.53 265.836,149.03 265.5,148C 264.428,143.876 264.262,139.71 265,135.5C 265.417,134.244 266.25,133.577 267.5,133.5 Z"/></g>
<g><path style="opacity:0.8" fill="#030000" d="M 477.5,140.5 C 481.5,140.5 485.5,140.5 489.5,140.5C 490.058,158.661 484.558,174.661 473,188.5C 469.757,192.167 465.924,194.834 461.5,196.5C 462.803,191.56 463.803,186.56 464.5,181.5C 468.083,177.122 471.083,172.288 473.5,167C 476.728,158.464 478.061,149.631 477.5,140.5 Z"/></g>
<g><path style="opacity:1" fill="#991919" d="M 449.5,139.5 C 455.956,140.637 462.456,141.637 469,142.5C 470.681,142.392 471.848,141.725 472.5,140.5C 472.833,140.5 473.167,140.5 473.5,140.5C 473.5,141.5 473.5,142.5 473.5,143.5C 465.023,143.733 457.023,142.4 449.5,139.5 Z"/></g>
<g><path style="opacity:0.849" fill="#0a0100" d="M 394.5,153.5 C 380.566,155.296 372.566,163.129 370.5,177C 372.173,187.163 377.84,193.663 387.5,196.5C 366.162,198.996 357.329,189.662 361,168.5C 367.99,153.813 379.157,148.813 394.5,153.5 Z"/></g>
<g><path style="opacity:0.839" fill="#c60000" d="M 433.5,166.5 C 429.833,166.5 426.167,166.5 422.5,166.5C 418.784,158.466 412.45,154.133 403.5,153.5C 405.048,152.206 407.048,151.539 409.5,151.5C 418.58,150.628 425.914,153.628 431.5,160.5C 432.747,162.323 433.414,164.323 433.5,166.5 Z"/></g>
<g><path style="opacity:0.832" fill="#070100" d="M 261.5,160.5 C 255.747,162.299 250.581,165.299 246,169.5C 241.492,179.337 241.659,189.171 246.5,199C 255.529,217.238 268.196,232.404 284.5,244.5C 291.582,250.073 299.082,255.073 307,259.5C 323.066,268.604 339.232,277.437 355.5,286C 372.966,297.803 388.133,311.969 401,328.5C 402.508,332.76 404.508,336.76 407,340.5C 418.362,379.357 410.695,414.024 384,444.5C 361.753,467.92 334.586,483.253 302.5,490.5C 291.438,492.794 280.438,494.96 269.5,497C 259.53,498.112 249.53,498.612 239.5,498.5C 247.97,496.812 256.637,495.479 265.5,494.5C 270.833,493.5 276.167,492.5 281.5,491.5C 286.641,490.336 291.641,489.003 296.5,487.5C 298.302,486.542 300.302,485.875 302.5,485.5C 305.428,485.435 308.095,484.768 310.5,483.5C 352.907,468.928 382.073,440.595 398,398.5C 398.936,394.886 399.436,391.22 399.5,387.5C 400.825,383.555 401.492,379.222 401.5,374.5C 401.499,369.987 401.166,365.653 400.5,361.5C 399.72,354.932 398.053,348.598 395.5,342.5C 387.975,326.999 377.642,313.499 364.5,302C 343.042,286.135 320.042,272.469 295.5,261C 276.489,249.366 259.822,235.2 245.5,218.5C 243.262,213.438 240.429,208.772 237,204.5C 234.64,199.919 232.806,195.253 231.5,190.5C 231.065,183.666 231.732,176.999 233.5,170.5C 240.453,160.654 249.786,157.321 261.5,160.5 Z"/></g>
<g><path style="opacity:0.884" fill="#c40101" d="M 459.5,176.5 C 457.071,176.884 454.737,177.551 452.5,178.5C 451.448,176.744 449.781,176.077 447.5,176.5C 448.226,172.693 446.893,170.026 443.5,168.5C 452.462,163.808 457.796,166.475 459.5,176.5 Z"/></g>
<g><path style="opacity:0.593" fill="#0a0000" d="M 422.5,166.5 C 426.167,166.5 429.833,166.5 433.5,166.5C 434.167,166.5 434.5,166.833 434.5,167.5C 430.75,170.172 427.083,172.839 423.5,175.5C 422.833,175.167 422.167,174.833 421.5,174.5C 422.393,171.916 422.726,169.249 422.5,166.5 Z"/></g>
<g><path style="opacity:1" fill="#8d1717" d="M 97.5,176.5 C 92.7858,176.353 88.1191,176.686 83.5,177.5C 85.3972,176.195 87.7305,175.529 90.5,175.5C 93.0254,175.503 95.3587,175.837 97.5,176.5 Z"/></g>
<g><path style="opacity:0.736" fill="#070000" d="M 97.5,176.5 C 98.5,176.5 99.5,176.5 100.5,176.5C 67.8619,182.803 42.8619,200.136 25.5,228.5C 24.675,229.386 23.675,229.719 22.5,229.5C 23.2238,222.798 24.2238,216.131 25.5,209.5C 31.4692,204.865 37.1359,199.865 42.5,194.5C 46.2311,192.934 49.5645,190.767 52.5,188C 57.4063,185.963 62.2396,183.796 67,181.5C 72.5651,180.233 78.0651,178.9 83.5,177.5C 88.1191,176.686 92.7858,176.353 97.5,176.5 Z"/></g>
<g><path style="opacity:0.861" fill="#c80101" d="M 120.5,176.5 C 128.202,176.431 135.869,176.931 143.5,178C 166.541,184.465 177.374,199.632 176,223.5C 170.198,239.087 158.865,247.087 142,247.5C 140.319,247.392 139.152,246.725 138.5,245.5C 159.1,239.931 167.266,226.597 163,205.5C 160.617,199.523 157.45,194.189 153.5,189.5C 152.448,189.649 151.448,189.483 150.5,189C 148.66,186.823 146.493,184.989 144,183.5C 136.09,180.576 128.256,178.243 120.5,176.5 Z"/></g>
<g><path style="opacity:1" fill="#621010" d="M 233.5,170.5 C 231.732,176.999 231.065,183.666 231.5,190.5C 230.349,185.35 230.183,180.016 231,174.5C 231.122,172.563 231.955,171.23 233.5,170.5 Z"/></g>
<g><path style="opacity:0.362" fill="#010000" d="M 447.5,176.5 C 449.781,176.077 451.448,176.744 452.5,178.5C 450.205,181.808 447.205,183.142 443.5,182.5C 444.877,180.435 446.21,178.435 447.5,176.5 Z"/></g>
<g><path style="opacity:1" fill="#861414" d="M 285.5,185.5 C 288.5,185.5 291.5,185.5 294.5,185.5C 294.5,186.5 294.5,187.5 294.5,188.5C 293.833,188.5 293.167,188.5 292.5,188.5C 289.816,186.458 286.816,186.125 283.5,187.5C 283.5,186.167 284.167,185.5 285.5,185.5 Z"/></g>
<g><path style="opacity:0.56" fill="#070000" d="M 292.5,188.5 C 286.352,190.568 280.352,193.235 274.5,196.5C 272.447,195.061 271.447,193.061 271.5,190.5C 275.252,188.698 279.252,187.698 283.5,187.5C 286.816,186.125 289.816,186.458 292.5,188.5 Z"/></g>
<g><path style="opacity:0.883" fill="#c80000" d="M 313.5,214.5 C 312.209,214.263 311.209,214.596 310.5,215.5C 307.411,216.785 304.078,217.451 300.5,217.5C 301.925,207.485 305.925,198.651 312.5,191C 310.389,190.155 308.389,189.322 306.5,188.5C 307.594,187.418 308.927,186.752 310.5,186.5C 314.86,187.194 319.194,188.028 323.5,189C 324.167,189.667 324.833,190.333 325.5,191C 318.369,197.202 314.369,205.035 313.5,214.5 Z"/></g>
<g><path style="opacity:0.77" fill="#010000" d="M 415.5,208.5 C 415.167,209.167 414.833,209.833 414.5,210.5C 411.061,210.747 407.728,210.414 404.5,209.5C 403.272,208.694 402.272,207.694 401.5,206.5C 401.813,202.958 401.479,199.625 400.5,196.5C 400.5,196.167 400.5,195.833 400.5,195.5C 405.624,193.77 410.624,191.77 415.5,189.5C 413.972,193.026 412.972,196.693 412.5,200.5C 412.078,203.782 413.078,206.448 415.5,208.5 Z"/></g>
<g><path style="opacity:1" fill="#3f0d0c" d="M 400.5,196.5 C 401.479,199.625 401.813,202.958 401.5,206.5C 399.361,203.434 399.027,200.101 400.5,196.5 Z"/></g>
<g><path style="opacity:0.745" fill="#040000" d="M 400.5,235.5 C 403.764,233.906 406.431,231.573 408.5,228.5C 409.815,227.524 411.148,226.524 412.5,225.5C 415.539,220.62 418.206,215.62 420.5,210.5C 425.03,209.169 429.03,207.002 432.5,204C 434.074,203.301 435.407,203.635 436.5,205C 432.017,212.364 427.517,219.864 423,227.5C 415.381,236.397 405.881,242.397 394.5,245.5C 394.351,244.448 394.517,243.448 395,242.5C 397.276,240.459 399.109,238.126 400.5,235.5 Z"/></g>
<g><path style="opacity:1" fill="#691111" d="M 404.5,209.5 C 407.728,210.414 411.061,210.747 414.5,210.5C 413.036,211.16 411.369,211.493 409.5,211.5C 407.36,211.444 405.694,210.777 404.5,209.5 Z"/></g>
<g><path style="opacity:0.783" fill="#c70101" d="M 408.5,228.5 C 406.431,231.573 403.764,233.906 400.5,235.5C 399.524,230.011 396.691,225.678 392,222.5C 383.68,217.604 374.847,214.604 365.5,213.5C 371.005,212.347 376.672,212.347 382.5,213.5C 387.217,215.221 392.05,216.554 397,217.5C 400.445,219.307 403.612,221.474 406.5,224C 407.582,225.33 408.249,226.83 408.5,228.5 Z"/></g>
<g><path style="opacity:1" fill="#5b0e0e" d="M 326.5,213.5 C 321.384,214.806 316.051,215.473 310.5,215.5C 311.209,214.596 312.209,214.263 313.5,214.5C 317.785,213.705 322.119,213.372 326.5,213.5 Z"/></g>
<g><path style="opacity:0.548" fill="#0a0100" d="M 341.5,213.5 C 327.191,215.578 313.191,219.245 299.5,224.5C 299.198,221.941 299.532,219.607 300.5,217.5C 304.078,217.451 307.411,216.785 310.5,215.5C 316.051,215.473 321.384,214.806 326.5,213.5C 331.469,212.217 336.469,212.217 341.5,213.5 Z"/></g>
<g><path style="opacity:0.602" fill="#070000" d="M 124.5,245.5 C 119.69,245.987 114.69,245.987 109.5,245.5C 107.401,244.388 105.067,243.721 102.5,243.5C 100.791,237.672 100.124,231.672 100.5,225.5C 101.5,225.5 102.5,225.5 103.5,225.5C 106.552,236.217 113.552,242.884 124.5,245.5 Z"/></g>
<g><path style="opacity:0.836" fill="#c80101" d="M 102.5,243.5 C 105.067,243.721 107.401,244.388 109.5,245.5C 110.919,246.451 112.585,246.784 114.5,246.5C 115.44,251.913 117.44,256.913 120.5,261.5C 124.685,265.519 129.018,269.353 133.5,273C 139.92,275.667 146.253,277.834 152.5,279.5C 130.235,281.827 114.069,273.16 104,253.5C 103.39,250.173 102.89,246.839 102.5,243.5 Z"/></g>
<g><path style="opacity:1" fill="#6c0f0f" d="M 109.5,245.5 C 114.69,245.987 119.69,245.987 124.5,245.5C 124.833,245.5 125.167,245.5 125.5,245.5C 124.666,246.748 123.333,247.415 121.5,247.5C 119.142,247.247 116.808,246.914 114.5,246.5C 112.585,246.784 110.919,246.451 109.5,245.5 Z"/></g>
<g><path style="opacity:0.764" fill="#220805" d="M 189.5,276.5 C 192.388,275.99 194.721,276.656 196.5,278.5C 194.167,278.5 191.833,278.5 189.5,278.5C 189.5,277.833 189.5,277.167 189.5,276.5 Z"/></g>
<g><path style="opacity:0.996" fill="#531210" d="M 189.5,276.5 C 189.5,277.167 189.5,277.833 189.5,278.5C 180.521,279.266 171.521,279.599 162.5,279.5C 164.397,278.195 166.731,277.529 169.5,277.5C 176.154,276.86 182.82,276.527 189.5,276.5 Z"/></g>
<g><path style="opacity:0.821" fill="#c80202" d="M 306.5,323.5 C 284.414,299.372 256.914,284.706 224,279.5C 219.189,278.802 214.356,278.469 209.5,278.5C 211.743,277.188 214.41,276.522 217.5,276.5C 228.768,277.448 239.934,279.115 251,281.5C 259.272,284.953 267.772,287.786 276.5,290C 282.876,294.473 289.543,298.473 296.5,302C 302.024,307.227 307.858,312.06 314,316.5C 319.147,322.779 323.813,329.446 328,336.5C 329.709,339.719 331.209,343.052 332.5,346.5C 332.167,346.833 331.833,347.167 331.5,347.5C 326.761,340.586 321.428,334.086 315.5,328C 312.397,326.719 309.731,324.886 307.5,322.5C 306.893,322.624 306.56,322.957 306.5,323.5 Z"/></g>
<g><path style="opacity:0.836" fill="#c70000" d="M 213.5,299.5 C 213.833,299.5 214.167,299.5 214.5,299.5C 214.842,300.338 215.508,300.672 216.5,300.5C 211.545,301.259 206.545,302.425 201.5,304C 188.087,309.649 177.253,318.483 169,330.5C 164.902,335.441 162.402,341.108 161.5,347.5C 156.177,350.837 151.177,354.503 146.5,358.5C 151.912,327.783 169.579,308.45 199.5,300.5C 204.132,299.685 208.799,299.352 213.5,299.5 Z"/></g>
<g><path style="opacity:0.835" fill="#610f0f" d="M 214.5,299.5 C 221.255,298.877 227.588,299.544 233.5,301.5C 227.879,300.646 222.212,300.313 216.5,300.5C 215.508,300.672 214.842,300.338 214.5,299.5 Z"/></g>
<g><path style="opacity:0.779" fill="#0f0201" d="M 213.5,299.5 C 244.092,296.574 272.092,303.574 297.5,320.5C 297.427,322.027 298.094,323.027 299.5,323.5C 303.049,330.431 306.715,337.431 310.5,344.5C 310.167,345.167 309.833,345.833 309.5,346.5C 306.026,342.18 302.693,337.68 299.5,333C 298.026,331.684 296.359,330.684 294.5,330C 288.281,323.47 281.114,317.97 273,313.5C 267.507,311.012 262.007,308.512 256.5,306C 249.009,303.557 241.342,302.057 233.5,301.5C 227.588,299.544 221.255,298.877 214.5,299.5C 214.167,299.5 213.833,299.5 213.5,299.5 Z"/></g>
<g><path style="opacity:0.771" fill="#070100" d="M 195.5,438.5 C 190.552,439.559 185.552,439.726 180.5,439C 154.392,435.193 129.892,427.026 107,414.5C 99.0758,409.204 91.5758,403.538 84.5,397.5C 83.9101,396.234 83.4101,394.901 83,393.5C 75.1755,385.514 69.6755,376.181 66.5,365.5C 65.9759,363.694 65.3092,362.028 64.5,360.5C 64.1667,360.5 63.8333,360.5 63.5,360.5C 63.1139,349.098 63.7805,337.764 65.5,326.5C 66.6406,321.438 68.6406,316.771 71.5,312.5C 71.4451,322.404 71.6118,332.404 72,342.5C 75.5783,362.992 83.9116,380.992 97,396.5C 117.298,414.78 140.964,427.113 168,433.5C 177.489,434.68 186.656,436.347 195.5,438.5 Z"/></g>
<g><path style="opacity:0.061" fill="#ad1a1b" d="M 297.5,320.5 C 298.906,320.973 299.573,321.973 299.5,323.5C 298.094,323.027 297.427,322.027 297.5,320.5 Z"/></g>
<g><path style="opacity:1" fill="#520e0f" d="M 199.5,338.5 C 192.82,338.612 186.153,338.946 179.5,339.5C 183.406,338.06 187.573,337.394 192,337.5C 194.69,337.503 197.19,337.836 199.5,338.5 Z"/></g>
<g><path style="opacity:0.739" fill="#060100" d="M 199.5,338.5 C 200.167,338.5 200.833,338.5 201.5,338.5C 186.638,341.351 173.305,347.518 161.5,357C 156.157,362.186 151.157,367.686 146.5,373.5C 145.272,368.481 145.272,363.481 146.5,358.5C 151.177,354.503 156.177,350.837 161.5,347.5C 167.409,344.434 173.409,341.767 179.5,339.5C 186.153,338.946 192.82,338.612 199.5,338.5 Z"/></g>
<g><path style="opacity:0.82" fill="#c80201" d="M 266.5,363.5 C 263.892,359.888 260.892,356.555 257.5,353.5C 253.887,350.896 250.053,348.562 246,346.5C 237.298,343.004 228.465,340.337 219.5,338.5C 245.035,336.559 265.702,345.725 281.5,366C 277.624,365.332 273.791,364.165 270,362.5C 268.862,362.989 267.695,363.322 266.5,363.5 Z"/></g>
<g><path style="opacity:0.789" fill="#c80101" d="M 226.5,357.5 C 226.5,358.5 226.5,359.5 226.5,360.5C 223.432,360.547 220.432,361.047 217.5,362C 212.88,363.66 208.213,365.326 203.5,367C 199.783,370.385 195.783,373.385 191.5,376C 191.042,378.398 189.708,380.064 187.5,381C 183.848,381.499 180.182,381.665 176.5,381.5C 176.167,381.5 175.833,381.5 175.5,381.5C 180.892,373.795 187.892,367.962 196.5,364C 206.151,359.935 216.151,357.768 226.5,357.5 Z"/></g>
<g><path style="opacity:0.555" fill="#0d0201" d="M 231.5,357.5 C 235.514,357.334 239.514,357.501 243.5,358C 248.039,359.216 252.706,360.216 257.5,361C 258.056,361.383 258.389,361.883 258.5,362.5C 259.292,363.967 259.292,365.3 258.5,366.5C 251.727,363.393 244.727,361.393 237.5,360.5C 235.156,360.06 233.156,359.06 231.5,357.5 Z"/></g>
<g><path style="opacity:0.997" fill="#651010" d="M 230.5,357.5 C 230.833,357.5 231.167,357.5 231.5,357.5C 233.156,359.06 235.156,360.06 237.5,360.5C 235.167,360.5 232.833,360.5 230.5,360.5C 230.5,359.5 230.5,358.5 230.5,357.5 Z"/></g>
<g><path style="opacity:0.822" fill="#c70101" d="M 63.5,360.5 C 63.8333,360.5 64.1667,360.5 64.5,360.5C 64.0773,362.781 64.744,364.448 66.5,365.5C 69.6755,376.181 75.1755,385.514 83,393.5C 83.4101,394.901 83.9101,396.234 84.5,397.5C 101.393,438.894 130.56,468.227 172,485.5C 183.588,488.809 195.088,491.975 206.5,495C 214.537,495.594 222.204,496.761 229.5,498.5C 155.807,498.445 103.473,465.779 72.5,400.5C 70.3006,394.118 68.1339,387.785 66,381.5C 64.7553,374.543 63.922,367.543 63.5,360.5 Z"/></g>
<g><path style="opacity:0.676" fill="#5c0000" d="M 64.5,360.5 C 65.3092,362.028 65.9759,363.694 66.5,365.5C 64.744,364.448 64.0773,362.781 64.5,360.5 Z"/></g>
<g><path style="opacity:1" fill="#480b0b" d="M 400.5,361.5 C 401.166,365.653 401.499,369.987 401.5,374.5C 401.492,379.222 400.825,383.555 399.5,387.5C 400.442,378.887 400.775,370.221 400.5,361.5 Z"/></g>
<g><path style="opacity:0.293" fill="#010000" d="M 175.5,381.5 C 175.833,381.5 176.167,381.5 176.5,381.5C 180.298,382.483 184.298,382.817 188.5,382.5C 188.389,383.117 188.056,383.617 187.5,384C 183.579,384.203 179.745,384.703 176,385.5C 174.37,384.182 174.203,382.849 175.5,381.5 Z"/></g>
<g><path style="opacity:0.834" fill="#c80101" d="M 206.5,382.5 C 218.933,381.628 230.933,383.461 242.5,388C 253.345,392.924 261.345,400.757 266.5,411.5C 269.257,420.341 266.923,427.341 259.5,432.5C 254.034,435.12 248.368,437.286 242.5,439C 236.984,439.817 231.65,439.651 226.5,438.5C 233.883,436.641 241.216,434.141 248.5,431C 255.298,426.268 257.464,420.101 255,412.5C 253.217,409.657 251.717,406.657 250.5,403.5C 242.378,395.106 232.711,389.272 221.5,386C 216.877,385.042 212.21,384.375 207.5,384C 206.944,383.617 206.611,383.117 206.5,382.5 Z"/></g>
<g><path style="opacity:1" fill="#741313" d="M 310.5,483.5 C 308.095,484.768 305.428,485.435 302.5,485.5C 304.838,483.96 307.505,483.294 310.5,483.5 Z"/></g>
<g><path style="opacity:1" fill="#7d1515" d="M 296.5,487.5 C 291.641,489.003 286.641,490.336 281.5,491.5C 286.021,488.792 291.021,487.459 296.5,487.5 Z"/></g>
<g><path style="opacity:0.902" fill="#8f1717" d="M 265.5,494.5 C 256.637,495.479 247.97,496.812 239.5,498.5C 239.167,498.5 238.833,498.5 238.5,498.5C 238.5,497.5 238.5,496.5 238.5,495.5C 247.506,495.3 256.506,494.966 265.5,494.5 Z"/></g>
</svg>